<svg xmlns="http://www.w3.org/2000/svg" xmlns:xlink="http://www.w3.org/1999/xlink" id="Capa_1" x="0" y="0" enable-background="new 0 0 51.562 51.562" version="1.1" viewBox="0 0 51.562 51.562" xml:space="preserve"><g><g><g><path fill="#010002" d="M40.57,38.51c0.387-0.203,0.66-0.598,0.66-1.064l-0.004-15.414h0.59v4.909 c0,0.005,0,0.007,0,0.011c0,0.5,0.406,0.905,0.904,0.905c0.502,0,0.905-0.405,0.905-0.905c0-0.004,0-0.006,0-0.011v-5.28 c-0.196-2.355-2.929-2.321-2.929-2.321h-4.309c-3.08,0.059-2.974,2.321-2.974,2.321v5.28h0.003c0,0.015-0.002,0.026-0.002,0.036 c0,0.507,0.407,0.908,0.909,0.908c0.501,0,0.905-0.401,0.905-0.908c0-0.01-0.002-0.021-0.004-0.036h0.004v-4.887h0.568 l-0.013,15.384c0,0.471,0.272,0.867,0.662,1.07h-4.437v-12h-8.224c0.732-0.009,1.325-0.602,1.325-1.333l0.003-10.824h0.598 v10.835l0.011,0.008c0.009,0.728,0.599,1.313,1.326,1.313c0.73,0,1.326-0.594,1.326-1.328l0.001-16.177l5.734-5.889V3.112 c0.002-0.002,0.002-0.005,0.006-0.007c0.388-0.385,0.388-1.012,0-1.397c-0.386-0.386-1.013-0.386-1.397,0 c0,0-0.002,0.005-0.006,0.007L29.017,5.44h-7.176l-3.695-3.723c-0.002-0.001-0.005-0.003-0.005-0.003 c-0.388-0.39-1.014-0.39-1.4-0.004c-0.385,0.386-0.385,1.013,0,1.397c0.003,0.002,0.005,0.005,0.007,0.007v0.002l5.71,5.866 L22.45,25.176c0,0.733,0.592,1.326,1.324,1.333h-4.726v9.114h-4.304c0.427-0.188,0.726-0.612,0.726-1.108l-0.004-15.417h0.589 v4.911h0.002c0,0.004,0,0.005,0,0.009c0,0.502,0.406,0.906,0.905,0.906c0.5,0,0.907-0.404,0.907-0.906c0-0.004,0-0.005,0-0.009 v-5.282c-0.199-2.354-2.929-2.321-2.929-2.321h-4.307c-3.083,0.06-2.974,2.321-2.974,2.321v5.282H7.66 c0,0.014-0.001,0.026-0.001,0.038c0,0.502,0.407,0.909,0.908,0.909c0.502,0,0.904-0.407,0.904-0.909 c0-0.011-0.001-0.023-0.003-0.038h0.003v-4.888h0.568l-0.006,15.39c0,0.498,0.301,0.922,0.727,1.113H6.705v15.938h12.344h0.625 h12.212h0.133h12.839V38.51H40.57z M12.484,34.51l-0.002-9.931h0.547v9.938l0.009,0.011c0.007,0.489,0.305,0.909,0.725,1.096 h-2.006C12.184,35.43,12.484,35.006,12.484,34.51z M19.049,50.512H7.75V36.665l11.33-0.012L19.049,50.512z M30.975,50.512H20.094 V27.551h10.881V50.512z M38.241,37.436l-0.003-9.926h0.548v9.938l0.011,0.008c0.008,0.463,0.274,0.853,0.658,1.054h-1.877 C37.967,38.305,38.241,37.908,38.241,37.436z M43.812,50.512H32.08l-0.047-10.957h11.779V50.512z"/><path fill="#010002" d="M28.248,40.416h-1.859v-8.212h-0.952c-0.019,0.265-0.078,0.478-0.185,0.636 c-0.108,0.151-0.257,0.283-0.446,0.385c-0.148,0.082-0.37,0.143-0.667,0.187c-0.293,0.044-0.569,0.063-0.825,0.063v0.832h1.895 v6.107h-1.894v0.932h4.933L28.248,40.416L28.248,40.416z"/><path fill="#010002" d="M16.454,46.958h-4.9c0.405-0.343,0.838-0.715,1.304-1.114c0.464-0.402,0.914-0.817,1.353-1.246 c0.305-0.297,0.565-0.569,0.779-0.813c0.215-0.245,0.402-0.495,0.559-0.748c0.17-0.271,0.3-0.554,0.388-0.854 c0.087-0.303,0.132-0.625,0.132-0.971c0-0.771-0.264-1.382-0.797-1.832c-0.53-0.451-1.261-0.677-2.196-0.677 c-0.453,0-0.922,0.06-1.404,0.179c-0.482,0.117-0.87,0.248-1.157,0.389v1.285h0.059c0.411-0.269,0.833-0.467,1.267-0.599 c0.432-0.131,0.833-0.196,1.205-0.196c0.559,0,0.995,0.135,1.308,0.4c0.312,0.268,0.467,0.639,0.467,1.113 c0,0.516-0.145,0.999-0.435,1.445c-0.291,0.444-0.827,1.049-1.609,1.809c-0.371,0.365-0.772,0.729-1.203,1.097 c-0.429,0.367-0.86,0.733-1.289,1.103v1.277h6.168L16.454,46.958z"/><path fill="#010002" d="M38.221,49.633c0.492,0,0.948-0.066,1.36-0.205c0.413-0.139,0.771-0.349,1.079-0.636 c0.271-0.257,0.484-0.557,0.635-0.903c0.151-0.348,0.229-0.729,0.229-1.146s-0.064-0.762-0.189-1.027 c-0.127-0.265-0.288-0.483-0.483-0.658c-0.176-0.154-0.392-0.287-0.646-0.391c-0.252-0.104-0.478-0.173-0.672-0.203v-0.088 c0.485-0.101,0.908-0.338,1.265-0.714c0.355-0.379,0.536-0.819,0.536-1.321c0-0.373-0.075-0.697-0.227-0.977 c-0.149-0.275-0.375-0.516-0.666-0.711c-0.274-0.18-0.582-0.311-0.921-0.391c-0.34-0.082-0.729-0.123-1.174-0.123 c-0.455,0-0.922,0.062-1.403,0.184c-0.484,0.118-0.87,0.251-1.16,0.395v1.276h0.063c0.387-0.251,0.799-0.446,1.233-0.586 c0.438-0.142,0.851-0.209,1.238-0.209c0.253,0,0.479,0.021,0.677,0.062c0.2,0.041,0.387,0.114,0.563,0.225 c0.166,0.104,0.302,0.24,0.394,0.404c0.095,0.166,0.14,0.357,0.14,0.58c0,0.498-0.183,0.873-0.551,1.135 c-0.371,0.26-0.867,0.388-1.482,0.388h-0.433v1.017h0.55c0.305,0,0.584,0.021,0.849,0.07c0.261,0.047,0.481,0.135,0.665,0.26 c0.186,0.122,0.328,0.291,0.434,0.506s0.157,0.484,0.157,0.813c0,0.331-0.05,0.604-0.144,0.819 c-0.09,0.218-0.229,0.414-0.418,0.595c-0.181,0.165-0.414,0.293-0.705,0.379c-0.287,0.085-0.563,0.129-0.818,0.129 c-0.436,0-0.889-0.076-1.36-0.228c-0.466-0.148-0.875-0.342-1.222-0.566h-0.092v1.277c0.313,0.144,0.716,0.275,1.203,0.396 C37.215,49.569,37.715,49.633,38.221,49.633z"/><circle cx="25.569" cy="2.34" r="2.34" fill="#010002"/><path fill="#010002" d="M12.894,15.714c1.186,0,2.148-0.964,2.148-2.149c0-1.183-0.963-2.146-2.148-2.146 c-1.184,0-2.146,0.963-2.146,2.146C10.748,14.75,11.71,15.714,12.894,15.714z"/><circle cx="38.65" cy="16.497" r="2.147" fill="#010002"/></g></g></g></svg>